<svg width="13" height="13" viewBox="0 0 13 13" fill="none" xmlns="http://www.w3.org/2000/svg">
<path d="M8.82178 2.15579L10.8441 4.17807L4.20245 10.8203C3.76058 11.2622 3.21693 11.5887 2.61929 11.7711L0.960732 12.2774C0.860002 12.3082 0.753416 12.2515 0.722665 12.1507C0.711586 12.1144 0.711586 12.0757 0.722665 12.0394L1.22896 10.381C1.41143 9.78323 1.738 9.2395 2.17993 8.79761L8.82178 2.15579ZM11.651 0.539365L12.4614 1.3498C12.7752 1.6636 12.7949 2.16021 12.5203 2.49687L12.4614 2.56197L11.4504 3.57236L9.4275 1.5495L10.4388 0.539344C10.7735 0.20465 11.3162 0.20466 11.651 0.539365Z" fill="#9A9A9A"/>
</svg>
