<svg width="30" height="30" viewBox="0 0 30 30" fill="none" xmlns="http://www.w3.org/2000/svg">
<path fill-rule="evenodd" clip-rule="evenodd" d="M2.10883 2.10883C0 4.21766 0 7.61175 0 14.4V15.6C0 22.3882 0 25.7823 2.10883 27.8912C4.21766 30 7.61175 30 14.4 30H15.6C22.3882 30 25.7823 30 27.8912 27.8912C30 25.7823 30 22.3882 30 15.6V14.4C30 7.61175 30 4.21766 27.8912 2.10883C25.7823 0 22.3882 0 15.6 0H14.4C7.61175 0 4.21766 0 2.10883 2.10883Z" fill="#3B5998"/>
<path fill-rule="evenodd" clip-rule="evenodd" d="M18.1578 9.32174L18.5305 7.04233C17.5757 6.97965 16.6174 6.98659 15.6636 7.06306C14.9985 7.14839 14.3904 7.47032 13.959 7.96561C13.5518 8.49666 13.3501 9.14829 13.3891 9.80755V12.7915L11 12.7742V15.0847L13.3891 15.0927V22L15.7938 21.9942V15.087H18.6297L19 12.7765H15.7938C15.7938 12.7765 15.7938 10.146 15.7938 9.8881C15.8043 9.79891 15.834 9.71283 15.881 9.63529C15.9279 9.55775 15.9911 9.49048 16.0665 9.43775C16.1419 9.38501 16.2278 9.34796 16.3189 9.32898C16.4099 9.31 16.5041 9.30948 16.5953 9.32747C17.1233 9.32056 18.1578 9.32174 18.1578 9.32174Z" fill="white"/>
</svg>
