<svg width="46" height="45" viewBox="0 0 46 45" fill="none" xmlns="http://www.w3.org/2000/svg">
<path d="M45.8338 22.5C45.8338 27.8906 43.9384 32.8382 40.7771 36.7131C40.6781 36.8352 40.5771 36.9561 40.4749 37.0758C40.1783 37.4239 39.8716 37.763 39.5551 38.0925C35.4616 42.3503 29.7074 45 23.3342 45C16.961 45 11.1253 42.3126 7.0261 38.0012C6.61147 37.565 6.21428 37.1127 5.83536 36.6445C5.79884 36.5995 5.76233 36.554 5.72581 36.5082C2.66396 32.6645 0.834229 27.7961 0.834229 22.5C0.833823 10.0737 10.9075 0 23.3338 0C35.7602 0 45.8338 10.0737 45.8338 22.5Z" fill="#EDEDED"/>
<path d="M39.5545 38.0919C35.4609 42.3498 29.7068 44.9995 23.3336 44.9995C16.9604 44.9995 11.1247 42.3121 7.02545 38.0007L16.8516 31.7869V29.4334C14.8832 27.6868 15.0308 24.941 15.0308 24.941C13.0993 25.3187 12.5443 21.9214 12.2335 20.101C11.9227 18.2802 12.911 17.9471 12.911 17.9471C10.9571 11.9081 13.6989 6.97924 16.8516 4.80344C20.0044 2.62724 24.911 3.11571 28.5522 4.44804C32.1934 5.78038 32.1934 8.79964 32.1934 8.79964C32.593 8.9108 34.0361 9.75426 34.4803 12.5297C34.9242 15.3047 33.7253 17.7917 33.7253 17.7917C35.7457 19.0125 33.2368 23.7864 32.8149 24.4968C32.393 25.2072 31.4826 25.0076 31.4826 25.0076C31.2826 28.4934 29.6841 29.5592 29.6841 29.5592V31.8238L39.5541 38.0915L39.5545 38.0919Z" fill="#C6C6C6"/>
</svg>
