<svg width="32" height="27" viewBox="0 0 32 27" fill="none" xmlns="http://www.w3.org/2000/svg">
<path d="M6.42922 27C3.99391 27 2.28919 26.1547 1.31507 24.4641C0.438356 22.674 0 20.7845 0 18.7956C0 14.7182 0.974125 11.0387 2.92237 7.75691C4.96804 4.47514 7.64688 1.8895 10.9589 0L13.1507 2.98343C11.4947 3.9779 9.83866 5.51934 8.18265 7.60773C6.52664 9.69613 5.5038 12.232 5.11415 15.2155C5.69863 15.116 6.42922 15.116 7.30593 15.2155C8.18265 15.2155 9.01065 15.4144 9.78995 15.8122C10.5693 16.2099 11.2024 16.8564 11.6895 17.7514C12.274 18.547 12.5662 19.6409 12.5662 21.0331C12.5662 22.7238 11.9817 24.1657 10.8128 25.3591C9.74125 26.453 8.28006 27 6.42922 27Z" fill="#68AFFF"/>
<path d="M20.1644 24.4641C21.1385 26.1547 22.8432 27 25.2785 27C27.1294 27 28.5906 26.453 29.6621 25.3591C30.831 24.1657 31.4155 22.7238 31.4155 21.0331C31.4155 19.6409 31.1233 18.547 30.5388 17.7514C30.0517 16.8564 29.4186 16.2099 28.6393 15.8122C27.86 15.4144 27.032 15.2155 26.1552 15.2155C25.2785 15.116 24.5479 15.116 23.9635 15.2155C24.3531 12.232 25.376 9.69613 27.032 7.60773C28.688 5.51934 30.344 3.9779 32 2.98343L29.8082 0C26.4962 1.8895 23.8174 4.47514 21.7717 7.75691C19.8234 11.0387 18.8493 14.7182 18.8493 18.7956C18.8493 20.7845 19.2877 22.674 20.1644 24.4641Z" fill="#68AFFF"/>
</svg>
