<svg width="30" height="30" viewBox="0 0 30 30" fill="none" xmlns="http://www.w3.org/2000/svg">
<path fill-rule="evenodd" clip-rule="evenodd" d="M2.10883 2.10883C0 4.21766 0 7.61175 0 14.4V15.6C0 22.3882 0 25.7823 2.10883 27.8912C4.21766 30 7.61175 30 14.4 30H15.6C22.3882 30 25.7823 30 27.8912 27.8912C30 25.7823 30 22.3882 30 15.6V14.4C30 7.61175 30 4.21766 27.8912 2.10883C25.7823 0 22.3882 0 15.6 0H14.4C7.61175 0 4.21766 0 2.10883 2.10883Z" fill="#447BBA"/>
<path fill-rule="evenodd" clip-rule="evenodd" d="M5.0625 9.125C5.225 16.925 9.12493 21.6125 15.9624 21.6125H16.35V17.15C18.8625 17.3999 20.7624 19.2374 21.5249 21.6125H25.0751C24.1001 18.0625 21.5375 16.1 19.9374 15.35C21.5375 14.425 23.7873 12.175 24.3249 9.125H21.0998C20.3999 11.6 18.3251 13.85 16.35 14.0625V9.125H13.1249V17.7749C11.1249 17.275 8.6 14.85 8.4875 9.125H5.0625Z" fill="white"/>
</svg>
