<svg width="45" height="45" viewBox="0 0 45 45" fill="none" xmlns="http://www.w3.org/2000/svg">
<path d="M45 22.5C45 28.0602 42.9832 33.1493 39.641 37.0758C39.4293 37.3245 39.2122 37.5691 38.9895 37.8081C34.8813 42.2319 29.014 45 22.5 45C15.986 45 10.3597 42.3442 6.2653 38.0779C5.78414 37.5764 5.32569 37.0526 4.89199 36.5082C1.82973 32.6645 0 27.7961 0 22.5C0 10.0737 10.0737 0 22.5 0C34.9263 0 45 10.0737 45 22.5Z" fill="#EDEDED"/>
<path d="M38.9894 37.808C34.8813 42.2318 29.014 44.9999 22.5 44.9999C15.986 44.9999 10.3596 42.3442 6.26526 38.0778L17.1556 33.8702C17.1556 33.8702 17.5244 32.703 17.2785 32.365C17.0327 32.0271 10.3673 33.3789 9.44599 32.1809C9.44599 32.1809 9.2618 32.2729 9.61517 31.1061C9.96813 29.9389 11.5654 24.4404 11.6883 23.4886C11.8112 22.5364 12.6405 17.1917 12.8555 16.1782C13.0706 15.1644 13.1014 12.0928 13.5314 10.8643C13.9611 9.63541 15.4971 7.76187 16.9101 7.14763C18.3228 6.53339 19.5716 7.08596 20.3907 7.82272C20.3664 7.79595 19.5919 6.94031 19.5416 6.77884C19.4904 6.61494 19.8178 6.04168 21.282 5.59135C22.7462 5.14101 25.0806 5.06393 26.6471 5.59135C28.2139 6.11876 29.1965 6.50256 30.7017 8.95991C32.2069 11.4173 32.4117 13.0863 32.5959 14.6629C32.7801 16.2399 34.3567 26.1302 34.3567 26.1302C34.3567 26.1302 35.2375 30.0619 35.1145 30.246C34.9916 30.4302 29.3397 32.4782 28.0293 32.5192C28.0293 32.5192 27.8755 33.5022 28.1522 33.9631C28.403 34.3806 37.3212 37.2708 38.9898 37.8088L38.9894 37.808Z" fill="#C6C6C6"/>
</svg>
