<svg width="112" height="112" viewBox="0 0 112 112" fill="none" xmlns="http://www.w3.org/2000/svg">
<path d="M47.9714 2.18247V4.50879C47.9714 5.36556 48.6655 6.05424 49.5223 6.05424H51.8486C52.7108 6.05424 53.3995 5.36014 53.3995 4.50336V2.18247C53.3941 1.32027 52.7 0.631592 51.8432 0.631592H49.5223C48.6655 0.631592 47.9714 1.32569 47.9714 2.18247Z" fill="#BFBFBF"/>
<path d="M51.7402 11.2059V11.3143H53.3941V9.6604H53.2857C53.2857 10.5172 52.5916 11.2059 51.7402 11.2059Z" fill="#BFBFBF"/>
<path d="M58.6538 11.3142H53.2312V7.73526C53.2312 6.71701 54.0566 5.89156 55.0749 5.89156H58.6538V11.3142Z" fill="#BFBFBF"/>
<path d="M58.4912 11.3142V5.89156H62.0702C63.0884 5.89156 63.9139 6.71701 63.9139 7.73526V11.3142H58.4912Z" fill="#BFBFBF"/>
<path d="M48.1338 16.5741H42.7111V12.9951C42.7111 11.9769 43.5366 11.1514 44.5548 11.1514H48.1338V16.5741Z" fill="#BFBFBF"/>
<path d="M53.3941 11.1515H47.9714V16.5741H53.3941V11.1515Z" fill="#BFBFBF"/>
<path d="M58.6538 11.1515H53.2312V16.5741H58.6538V11.1515Z" fill="#BFBFBF"/>
<path d="M63.9139 11.1515H58.4912V16.5741H63.9139V11.1515Z" fill="#BFBFBF"/>
<path d="M63.7515 16.5741V11.1514H67.3304C68.3487 11.1514 69.1741 11.9769 69.1741 12.9951V16.5741H63.7515Z" fill="#BFBFBF"/>
<path d="M48.1338 16.4115V21.8341H44.5548C43.5366 21.8341 42.7111 21.0087 42.7111 19.9904V16.4115H48.1338Z" fill="#BFBFBF"/>
<path d="M53.3941 16.4115H47.9714V21.8341H53.3941V16.4115Z" fill="#BFBFBF"/>
<path d="M58.6538 16.4115H53.2312V21.8341H58.6538V16.4115Z" fill="#BFBFBF"/>
<path d="M69.1738 16.4115V19.9904C69.1738 21.0087 68.3484 21.8341 67.3301 21.8341H65.5949C64.5766 21.8341 63.7512 21.0087 63.7512 19.9904V16.4115H69.1738Z" fill="#BFBFBF"/>
<path d="M53.3941 21.6714H47.9714V27.094H53.3941V21.6714Z" fill="#BFBFBF"/>
<path d="M58.6538 21.6714H53.2312V27.094H58.6538V21.6714Z" fill="#BFBFBF"/>
<path d="M58.4912 27.094V21.6713H62.0702C63.0884 21.6713 63.9139 22.4968 63.9139 23.515V27.094H58.4912Z" fill="#BFBFBF"/>
<path d="M53.394 26.9314V30.5103C53.394 31.5286 52.5686 32.354 51.5503 32.354H49.8151C48.7968 32.354 47.9714 31.5286 47.9714 30.5103V26.9314H53.394Z" fill="#BFBFBF"/>
<path d="M63.9136 26.9314V32.354H60.3346C59.3164 32.354 58.4909 31.5286 58.4909 30.5103V26.9314H63.9136Z" fill="#BFBFBF"/>
<path d="M63.7515 32.354V26.9314H67.3304C68.3487 26.9314 69.1741 27.7568 69.1741 28.7751V32.354H63.7515Z" fill="#BFBFBF"/>
<path d="M42.7112 33.7424V36.0687C42.7112 36.9255 43.4053 37.6142 44.2621 37.6142H46.5884C47.4506 37.6142 48.1393 36.9201 48.1393 36.0633V33.7424C48.1338 32.8802 47.4397 32.1915 46.583 32.1915H44.2621C43.4053 32.1915 42.7112 32.8856 42.7112 33.7424Z" fill="#BFBFBF"/>
<path d="M53.2312 33.7424V36.0687C53.2312 36.9255 53.9253 37.6142 54.7821 37.6142H57.1084C57.9706 37.6142 58.6593 36.9201 58.6593 36.0633V33.7424C58.6538 32.8802 57.9598 32.1915 57.103 32.1915H54.7821C53.9253 32.1915 53.2312 32.8856 53.2312 33.7424Z" fill="#BFBFBF"/>
<path d="M69.1738 32.1915V35.7705C69.1738 36.7887 68.3484 37.6142 67.3301 37.6142H65.5949C64.5766 37.6142 63.7512 36.7887 63.7512 35.7705V32.1915H69.1738Z" fill="#BFBFBF"/>
<path d="M21.834 48.1339H18.255C17.2368 48.1339 16.4113 47.3085 16.4113 46.2902V44.555C16.4113 43.5367 17.2368 42.7113 18.255 42.7113H21.834V48.1339Z" fill="#BFBFBF"/>
<path d="M21.6714 48.1339V44.555C21.6714 43.5367 22.4968 42.7113 23.5151 42.7113H25.2503C26.2686 42.7113 27.094 43.5367 27.094 44.555V48.1339H21.6714Z" fill="#BFBFBF"/>
<path d="M37.614 48.1339H34.0351C33.0168 48.1339 32.1914 47.3085 32.1914 46.2902V44.555C32.1914 43.5367 33.0168 42.7113 34.0351 42.7113H37.614V48.1339Z" fill="#BFBFBF"/>
<path d="M37.4514 48.1339V42.7113H41.0304C42.0486 42.7113 42.8741 43.5367 42.8741 44.555V48.1339H37.4514Z" fill="#BFBFBF"/>
<path d="M62.2598 48.0256V48.134H63.9137V46.4801H63.8052C63.8052 47.3369 63.1111 48.0256 62.2598 48.0256Z" fill="#BFBFBF"/>
<path d="M63.7515 48.1339V44.555C63.7515 43.5367 64.5769 42.7113 65.5952 42.7113H67.3304C68.3487 42.7113 69.1741 43.5367 69.1741 44.555V48.1339H63.7515Z" fill="#BFBFBF"/>
<path d="M88.5598 48.0256V48.134H90.2137V46.4801H90.1053C90.1053 47.3369 89.4112 48.0256 88.5598 48.0256Z" fill="#BFBFBF"/>
<path d="M95.4736 48.1339H90.051V44.555C90.051 43.5367 90.8764 42.7113 91.8947 42.7113H95.4736V48.1339Z" fill="#BFBFBF"/>
<path d="M95.3108 48.1339V44.555C95.3108 43.5367 96.1362 42.7113 97.1545 42.7113H98.8897C99.908 42.7113 100.733 43.5367 100.733 44.555V48.1339H95.3108Z" fill="#BFBFBF"/>
<path d="M6.0542 53.3938H0.631551V49.8149C0.631551 48.7966 1.457 47.9712 2.47525 47.9712H6.0542V53.3938Z" fill="#BFBFBF"/>
<path d="M5.89136 53.3938V47.9712H9.47031C10.4886 47.9712 11.314 48.7966 11.314 49.8149V53.3938H5.89136Z" fill="#BFBFBF"/>
<path d="M26.9312 53.3938V49.8149C26.9312 48.7966 27.7566 47.9712 28.7749 47.9712H30.5101C31.5283 47.9712 32.3538 48.7966 32.3538 49.8149V53.3938H26.9312Z" fill="#BFBFBF"/>
<path d="M35.9602 53.2854V53.3939H37.6141V51.74H37.5057C37.5057 52.5968 36.8116 53.2854 35.9602 53.2854Z" fill="#BFBFBF"/>
<path d="M42.8741 47.9712H37.4514V53.3938H42.8741V47.9712Z" fill="#BFBFBF"/>
<path d="M42.7112 53.3938V47.9712H46.2901C47.3084 47.9712 48.1338 48.7966 48.1338 49.8149V53.3938H42.7112Z" fill="#BFBFBF"/>
<path d="M63.9136 53.3938H60.3346C59.3164 53.3938 58.4909 52.5683 58.4909 51.5501V49.8149C58.4909 48.7966 59.3164 47.9712 60.3346 47.9712H63.9136V53.3938Z" fill="#BFBFBF"/>
<path d="M69.1741 47.9712H63.7515V53.3938H69.1741V47.9712Z" fill="#BFBFBF"/>
<path d="M78.0398 53.2854V53.3939H79.6937V51.74H79.5852C79.5852 52.5968 78.8912 53.2854 78.0398 53.2854Z" fill="#BFBFBF"/>
<path d="M84.9536 53.3938H79.531V49.8149C79.531 48.7966 80.3564 47.9712 81.3747 47.9712H84.9536V53.3938Z" fill="#BFBFBF"/>
<path d="M90.2139 47.9712H84.7913V53.3938H90.2139V47.9712Z" fill="#BFBFBF"/>
<path d="M95.4737 47.9712H90.051V53.3938H95.4737V47.9712Z" fill="#BFBFBF"/>
<path d="M105.994 53.3938H102.415C101.396 53.3938 100.571 52.5683 100.571 51.5501V49.8149C100.571 48.7966 101.396 47.9712 102.415 47.9712H105.994V53.3938Z" fill="#BFBFBF"/>
<path d="M105.831 53.3938V47.9712H109.41C110.428 47.9712 111.254 48.7966 111.254 49.8149V53.3938H105.831Z" fill="#BFBFBF"/>
<path d="M6.0542 53.2313V58.654H2.47525C1.457 58.654 0.631551 57.8285 0.631551 56.8103V53.2313H6.0542Z" fill="#BFBFBF"/>
<path d="M11.314 53.2313H5.89136V58.654H11.314V53.2313Z" fill="#BFBFBF"/>
<path d="M32.3538 53.2313V58.654H28.7748C27.7566 58.654 26.9311 57.8285 26.9311 56.8103V53.2313H32.3538Z" fill="#BFBFBF"/>
<path d="M37.6141 53.2313H32.1914V58.654H37.6141V53.2313Z" fill="#BFBFBF"/>
<path d="M42.8741 53.2313H37.4514V58.654H42.8741V53.2313Z" fill="#BFBFBF"/>
<path d="M48.1338 53.2313H42.7112V58.654H48.1338V53.2313Z" fill="#BFBFBF"/>
<path d="M69.1738 53.2313V58.654H65.5949C64.5766 58.654 63.7512 57.8285 63.7512 56.8103V53.2313H69.1738Z" fill="#BFBFBF"/>
<path d="M74.4339 53.2313H69.0112V58.654H74.4339V53.2313Z" fill="#BFBFBF"/>
<path d="M79.6936 53.2313H74.271V58.654H79.6936V53.2313Z" fill="#BFBFBF"/>
<path d="M84.9537 53.2313H79.531V58.654H84.9537V53.2313Z" fill="#BFBFBF"/>
<path d="M95.4736 53.2313V56.8103C95.4736 57.8285 94.6482 58.654 93.6299 58.654H91.8947C90.8764 58.654 90.051 57.8285 90.051 56.8103V53.2313H95.4736Z" fill="#BFBFBF"/>
<path d="M111.254 53.2313V56.8103C111.254 57.8285 110.428 58.654 109.41 58.654H107.675C106.656 58.654 105.831 57.8285 105.831 56.8103V53.2313H111.254Z" fill="#BFBFBF"/>
<path d="M11.314 58.4911V62.07C11.314 63.0883 10.4885 63.9137 9.47026 63.9137H7.73502C6.71677 63.9137 5.89132 63.0883 5.89132 62.07V58.4911H11.314Z" fill="#BFBFBF"/>
<path d="M14.9204 63.8055V63.9139H16.5743V62.26H16.4659C16.4659 63.1168 15.7718 63.8055 14.9204 63.8055Z" fill="#BFBFBF"/>
<path d="M21.834 63.9137H16.4113V60.3347C16.4113 59.3165 17.2368 58.491 18.255 58.491H21.834V63.9137Z" fill="#BFBFBF"/>
<path d="M21.6714 63.9137V60.3347C21.6714 59.3165 22.4968 58.491 23.5151 58.491H25.2503C26.2686 58.491 27.094 59.3165 27.094 60.3347V63.9137H21.6714Z" fill="#BFBFBF"/>
<path d="M48.1338 58.4911H42.7112V63.9137H48.1338V58.4911Z" fill="#BFBFBF"/>
<path d="M53.3941 58.4911H47.9714V63.9137H53.3941V58.4911Z" fill="#BFBFBF"/>
<path d="M58.6538 58.4911H53.2312V63.9137H58.6538V58.4911Z" fill="#BFBFBF"/>
<path d="M58.4912 63.9137V60.3347C58.4912 59.3165 59.3167 58.491 60.3349 58.491H62.0702C63.0884 58.491 63.9139 59.3165 63.9139 60.3347V63.9137H58.4912Z" fill="#BFBFBF"/>
<path d="M84.9537 58.4911H79.531V63.9137H84.9537V58.4911Z" fill="#BFBFBF"/>
<path d="M84.7913 63.9137V58.491H88.3702C89.3885 58.491 90.2139 59.3165 90.2139 60.3347V63.9137H84.7913Z" fill="#BFBFBF"/>
<path d="M99.0796 63.8055V63.9139H100.733V62.26H100.625C100.625 63.1168 99.9309 63.8055 99.0796 63.8055Z" fill="#BFBFBF"/>
<path d="M100.571 63.9137V60.3347C100.571 59.3165 101.396 58.491 102.415 58.491H104.15C105.168 58.491 105.994 59.3165 105.994 60.3347V63.9137H100.571Z" fill="#BFBFBF"/>
<path d="M0.631592 65.3021V67.6284C0.631592 68.4852 1.32569 69.1739 2.18247 69.1739H4.50878C5.37099 69.1739 6.05966 68.4798 6.05966 67.623V65.3021C6.05424 64.4399 5.36014 63.7512 4.50336 63.7512H2.18247C1.32569 63.7512 0.631592 64.4453 0.631592 65.3021Z" fill="#BFBFBF"/>
<path d="M16.5742 69.1737H12.9953C11.977 69.1737 11.1516 68.3483 11.1516 67.33V65.5948C11.1516 64.5765 11.977 63.7511 12.9953 63.7511H16.5742V69.1737Z" fill="#BFBFBF"/>
<path d="M16.4116 63.7512H21.8343V67.3302C21.8343 68.3484 21.0088 69.1739 19.9906 69.1739H16.4116V63.7512Z" fill="#BFBFBF"/>
<path d="M32.1914 65.3021V67.6284C32.1914 68.4852 32.8855 69.1739 33.7423 69.1739H36.0686C36.9308 69.1739 37.6195 68.4798 37.6195 67.623V65.3021C37.6141 64.4399 36.92 63.7512 36.0632 63.7512H33.7423C32.8855 63.7512 32.1914 64.4453 32.1914 65.3021Z" fill="#BFBFBF"/>
<path d="M48.1338 63.7512H42.7112V69.1739H48.1338V63.7512Z" fill="#BFBFBF"/>
<path d="M79.6936 69.1737H76.1147C75.0964 69.1737 74.271 68.3483 74.271 67.33V65.5948C74.271 64.5765 75.0964 63.7511 76.1147 63.7511H79.6936V69.1737Z" fill="#BFBFBF"/>
<path d="M84.9537 63.7512H79.531V69.1739H84.9537V63.7512Z" fill="#BFBFBF"/>
<path d="M90.2139 63.7512H84.7913V69.1739H90.2139V63.7512Z" fill="#BFBFBF"/>
<path d="M95.4737 63.7512H90.051V69.1739H95.4737V63.7512Z" fill="#BFBFBF"/>
<path d="M100.733 63.7512H95.3108V69.1739H100.733V63.7512Z" fill="#BFBFBF"/>
<path d="M105.994 63.7512H100.571V69.1739H105.994V63.7512Z" fill="#BFBFBF"/>
<path d="M105.831 69.1737V63.7511H109.41C110.428 63.7511 111.254 64.5765 111.254 65.5948V69.1737H105.831Z" fill="#BFBFBF"/>
<path d="M48.1338 69.0112H42.7112V74.4339H48.1338V69.0112Z" fill="#BFBFBF"/>
<path d="M47.9714 74.4338V69.0112H51.5504C52.5686 69.0112 53.3941 69.8366 53.3941 70.8549V74.4338H47.9714Z" fill="#BFBFBF"/>
<path d="M69.0112 74.4338V70.8549C69.0112 69.8366 69.8367 69.0112 70.8549 69.0112H72.5902C73.6084 69.0112 74.4339 69.8366 74.4339 70.8549V74.4338H69.0112Z" fill="#BFBFBF"/>
<path d="M100.733 69.0112H95.3108V74.4339H100.733V69.0112Z" fill="#BFBFBF"/>
<path d="M105.994 69.0112H100.571V74.4339H105.994V69.0112Z" fill="#BFBFBF"/>
<path d="M111.254 69.0112H105.831V74.4339H111.254V69.0112Z" fill="#BFBFBF"/>
<path d="M48.1338 74.2711V79.6938H44.5548C43.5366 79.6938 42.7111 78.8683 42.7111 77.8501V74.2711H48.1338Z" fill="#BFBFBF"/>
<path d="M53.3941 74.2711H47.9714V79.6938H53.3941V74.2711Z" fill="#BFBFBF"/>
<path d="M53.2312 79.6936V74.271H56.8101C57.8284 74.271 58.6538 75.0964 58.6538 76.1147V79.6936H53.2312Z" fill="#BFBFBF"/>
<path d="M74.4339 74.2711H69.0112V79.6938H74.4339V74.2711Z" fill="#BFBFBF"/>
<path d="M74.271 79.6936V74.271H77.8499C78.8682 74.271 79.6936 75.0964 79.6936 76.1147V79.6936H74.271Z" fill="#BFBFBF"/>
<path d="M95.4736 79.6936H91.8947C90.8764 79.6936 90.051 78.8682 90.051 77.8499V76.1147C90.051 75.0964 90.8764 74.271 91.8947 74.271H95.4736V79.6936Z" fill="#BFBFBF"/>
<path d="M100.733 74.2711H95.3108V79.6938H100.733V74.2711Z" fill="#BFBFBF"/>
<path d="M111.254 74.2711V77.8501C111.254 78.8683 110.428 79.6938 109.41 79.6938H107.675C106.656 79.6938 105.831 78.8683 105.831 77.8501V74.2711H111.254Z" fill="#BFBFBF"/>
<path d="M53.3941 79.5311H47.9714V84.9538H53.3941V79.5311Z" fill="#BFBFBF"/>
<path d="M58.6538 79.5311H53.2312V84.9538H58.6538V79.5311Z" fill="#BFBFBF"/>
<path d="M58.4912 84.9537V79.5311H62.0702C63.0884 79.5311 63.9139 80.3565 63.9139 81.3748V84.9537H58.4912Z" fill="#BFBFBF"/>
<path d="M74.4338 79.5311V84.9538H70.8549C69.8366 84.9538 69.0112 84.1283 69.0112 83.1101V79.5311H74.4338Z" fill="#BFBFBF"/>
<path d="M79.6936 79.5311H74.271V84.9538H79.6936V79.5311Z" fill="#BFBFBF"/>
<path d="M100.733 79.5311H95.3108V84.9538H100.733V79.5311Z" fill="#BFBFBF"/>
<path d="M48.1338 90.2135H42.7111V86.6346C42.7111 85.6163 43.5366 84.7909 44.5548 84.7909H48.1338V90.2135Z" fill="#BFBFBF"/>
<path d="M53.3941 84.791H47.9714V90.2137H53.3941V84.791Z" fill="#BFBFBF"/>
<path d="M63.9136 84.791V88.37C63.9136 89.3882 63.0881 90.2137 62.0699 90.2137H60.3346C59.3164 90.2137 58.4909 89.3882 58.4909 88.37V84.791H63.9136Z" fill="#BFBFBF"/>
<path d="M79.6936 84.791V88.37C79.6936 89.3882 78.8682 90.2137 77.8499 90.2137H76.1147C75.0964 90.2137 74.271 89.3882 74.271 88.37V84.791H79.6936Z" fill="#BFBFBF"/>
<path d="M83.2996 90.1054V90.2138H84.9535V88.5599H84.845C84.845 89.4167 84.1509 90.1054 83.2996 90.1054Z" fill="#BFBFBF"/>
<path d="M84.7913 90.2135V86.6346C84.7913 85.6163 85.6167 84.7909 86.635 84.7909H88.3702C89.3885 84.7909 90.2139 85.6163 90.2139 86.6346V90.2135H84.7913Z" fill="#BFBFBF"/>
<path d="M100.733 84.791V90.2137H97.1545C96.1362 90.2137 95.3108 89.3882 95.3108 88.37V84.791H100.733Z" fill="#BFBFBF"/>
<path d="M100.571 90.2135V86.6346C100.571 85.6163 101.396 84.7909 102.415 84.7909H104.15C105.168 84.7909 105.994 85.6163 105.994 86.6346V90.2135H100.571Z" fill="#BFBFBF"/>
<path d="M48.1338 90.051V95.4737H44.5548C43.5366 95.4737 42.7111 94.6482 42.7111 93.63V90.051H48.1338Z" fill="#BFBFBF"/>
<path d="M53.3941 90.051H47.9714V95.4737H53.3941V90.051Z" fill="#BFBFBF"/>
<path d="M62.2598 95.3652V95.4736H63.9137V93.8197H63.8052C63.8052 94.6765 63.1111 95.3652 62.2598 95.3652Z" fill="#BFBFBF"/>
<path d="M63.7515 95.4736V91.8947C63.7515 90.8764 64.5769 90.051 65.5952 90.051H67.3304C68.3487 90.051 69.1741 90.8764 69.1741 91.8947V95.4736H63.7515Z" fill="#BFBFBF"/>
<path d="M84.9536 95.4736H79.531V91.8947C79.531 90.8764 80.3564 90.051 81.3747 90.051H84.9536V95.4736Z" fill="#BFBFBF"/>
<path d="M90.2139 90.051H84.7913V95.4737H90.2139V90.051Z" fill="#BFBFBF"/>
<path d="M53.394 95.311V98.89C53.394 99.9082 52.5686 100.734 51.5503 100.734H49.8151C48.7968 100.734 47.9714 99.9082 47.9714 98.89V95.311H53.394Z" fill="#BFBFBF"/>
<path d="M63.9136 100.734H60.3346C59.3164 100.734 58.4909 99.9082 58.4909 98.8899V97.1547C58.4909 96.1364 59.3164 95.311 60.3346 95.311H63.9136V100.734Z" fill="#BFBFBF"/>
<path d="M63.7515 95.311H69.1741V98.89C69.1741 99.9082 68.3487 100.734 67.3304 100.734H63.7515V95.311Z" fill="#BFBFBF"/>
<path d="M84.9537 95.311H79.531V100.734H84.9537V95.311Z" fill="#BFBFBF"/>
<path d="M90.2139 95.311H84.7913V100.734H90.2139V95.311Z" fill="#BFBFBF"/>
<path d="M90.051 100.734V95.311H93.63C94.6482 95.311 95.4737 96.1364 95.4737 97.1547V100.734H90.051Z" fill="#BFBFBF"/>
<path d="M105.994 100.734H100.571V97.1547C100.571 96.1364 101.396 95.311 102.415 95.311H105.994V100.734Z" fill="#BFBFBF"/>
<path d="M105.831 100.734V95.311H109.41C110.428 95.311 111.254 96.1364 111.254 97.1547V100.734H105.831Z" fill="#BFBFBF"/>
<path d="M69.0112 102.122V104.448C69.0112 105.305 69.7053 105.994 70.5621 105.994H72.8884C73.7506 105.994 74.4393 105.299 74.4393 104.443V102.122C74.4339 101.26 73.7398 100.571 72.883 100.571H70.5621C69.7053 100.571 69.0112 101.265 69.0112 102.122Z" fill="#BFBFBF"/>
<path d="M78.0398 105.885V105.994H79.6937V104.34H79.5852C79.5852 105.196 78.8912 105.885 78.0398 105.885Z" fill="#BFBFBF"/>
<path d="M84.9537 100.571H79.531V105.994H84.9537V100.571Z" fill="#BFBFBF"/>
<path d="M95.4736 100.571V104.15C95.4736 105.168 94.6482 105.994 93.6299 105.994H91.8947C90.8764 105.994 90.051 105.168 90.051 104.15V100.571H95.4736Z" fill="#BFBFBF"/>
<path d="M99.0796 105.885V105.994H100.733V104.34H100.625C100.625 105.196 99.9309 105.885 99.0796 105.885Z" fill="#BFBFBF"/>
<path d="M105.994 100.571H100.571V105.994H105.994V100.571Z" fill="#BFBFBF"/>
<path d="M105.831 100.571H111.254V104.15C111.254 105.168 110.428 105.994 109.41 105.994H105.831V100.571Z" fill="#BFBFBF"/>
<path d="M58.6538 111.254H55.0749C54.0566 111.254 53.2312 110.428 53.2312 109.41V107.675C53.2312 106.656 54.0566 105.831 55.0749 105.831H58.6538V111.254Z" fill="#BFBFBF"/>
<path d="M63.9139 105.831H58.4912V111.254H63.9139V105.831Z" fill="#BFBFBF"/>
<path d="M63.7515 111.254V107.675C63.7515 106.656 64.5769 105.831 65.5952 105.831H67.3304C68.3487 105.831 69.1741 106.656 69.1741 107.675V111.254H63.7515Z" fill="#BFBFBF"/>
<path d="M79.6936 111.254H76.1147C75.0964 111.254 74.271 110.428 74.271 109.41V107.675C74.271 106.656 75.0964 105.831 76.1147 105.831H79.6936V111.254Z" fill="#BFBFBF"/>
<path d="M84.9537 105.831H79.531V111.254H84.9537V105.831Z" fill="#BFBFBF"/>
<path d="M84.7913 111.254V107.675C84.7913 106.656 85.6167 105.831 86.635 105.831H88.3702C89.3885 105.831 90.2139 106.656 90.2139 107.675V111.254H84.7913Z" fill="#BFBFBF"/>
<path d="M100.733 111.254H97.1545C96.1362 111.254 95.3108 110.428 95.3108 109.41V107.675C95.3108 106.656 96.1362 105.831 97.1545 105.831H100.733V111.254Z" fill="#BFBFBF"/>
<path d="M100.571 105.831H105.994V109.41C105.994 110.428 105.168 111.254 104.15 111.254H100.571V105.831Z" fill="#BFBFBF"/>
<path d="M33.1676 25.431V13.7901C33.1676 8.62308 32.4647 7.36233 32.1624 7.05935C31.8594 6.75704 30.5986 6.05414 25.431 6.05414H13.7908C8.62308 6.05414 7.36233 6.75704 7.06003 7.05935C6.75772 7.36233 6.05414 8.62308 6.05414 13.7901V25.431C6.05414 30.5986 6.75772 31.8594 7.06003 32.1624C7.36233 32.464 8.62308 33.1676 13.7908 33.1676H25.431C30.5986 33.1676 31.8594 32.464 32.1624 32.1624C32.4647 31.8594 33.1676 30.5986 33.1676 25.431ZM25.431 0.631592C36.0598 0.631592 38.5901 3.16189 38.5901 13.7901C38.5901 24.419 38.5901 14.8028 38.5901 25.431C38.5901 36.0598 36.0598 38.5901 25.431 38.5901C14.8028 38.5901 24.419 38.5901 13.7908 38.5901C3.16189 38.5901 0.631592 36.0598 0.631592 25.431C0.631592 14.8028 0.631592 19.7257 0.631592 13.7901C0.631592 3.16189 3.16189 0.631592 13.7908 0.631592C24.419 0.631592 14.8028 0.631592 25.431 0.631592ZM22.1051 11.4769C26.6605 11.4769 27.7448 12.5619 27.7448 17.1159C27.7448 21.6714 27.7448 17.5503 27.7448 22.1051C27.7448 26.6598 26.6605 27.7448 22.1051 27.7448C17.5503 27.7448 21.6714 27.7448 17.1166 27.7448C12.5619 27.7448 11.4769 26.6598 11.4769 22.1051C11.4769 17.5503 11.4769 19.66 11.4769 17.1159C11.4769 12.5619 12.5619 11.4769 17.1166 11.4769C21.6714 11.4769 17.5503 11.4769 22.1051 11.4769Z" fill="#BFBFBF"/>
<path d="M106.048 25.431V13.7901C106.048 8.62308 105.345 7.36233 105.042 7.05935C104.74 6.75704 103.479 6.05414 98.3111 6.05414H86.6709C81.5032 6.05414 80.2425 6.75704 79.9402 7.05935C79.6378 7.36233 78.9343 8.62308 78.9343 13.7901V25.431C78.9343 30.5986 79.6378 31.8594 79.9402 32.1624C80.2425 32.464 81.5032 33.1676 86.6709 33.1676H98.3111C103.479 33.1676 104.74 32.464 105.042 32.1624C105.345 31.8594 106.048 30.5986 106.048 25.431ZM98.3111 0.631592C108.94 0.631592 111.47 3.16189 111.47 13.7901C111.47 24.419 111.47 14.8028 111.47 25.431C111.47 36.0598 108.94 38.5901 98.3111 38.5901C87.6829 38.5901 97.2991 38.5901 86.6709 38.5901C76.042 38.5901 73.5117 36.0598 73.5117 25.431C73.5117 14.8028 73.5117 19.7257 73.5117 13.7901C73.5117 3.16189 76.042 0.631592 86.6709 0.631592C97.2991 0.631592 87.6829 0.631592 98.3111 0.631592ZM94.9852 11.4769C99.5407 11.4769 100.625 12.5619 100.625 17.1159C100.625 21.6714 100.625 17.5503 100.625 22.1051C100.625 26.6598 99.5407 27.7448 94.9852 27.7448C90.4305 27.7448 94.5515 27.7448 89.9967 27.7448C85.442 27.7448 84.357 26.6598 84.357 22.1051C84.357 17.5503 84.357 19.66 84.357 17.1159C84.357 12.5619 85.442 11.4769 89.9967 11.4769C94.5515 11.4769 90.4305 11.4769 94.9852 11.4769Z" fill="#BFBFBF"/>
<path d="M33.1676 98.3113V86.6705C33.1676 81.5034 32.4647 80.2427 32.1624 79.9397C31.8594 79.6374 30.5986 78.9345 25.431 78.9345H13.7908C8.62308 78.9345 7.36233 79.6374 7.06003 79.9397C6.75772 80.2427 6.05414 81.5034 6.05414 86.6705V98.3113C6.05414 103.479 6.75772 104.74 7.06003 105.043C7.36233 105.344 8.62308 106.048 13.7908 106.048H25.431C30.5986 106.048 31.8594 105.344 32.1624 105.043C32.4647 104.74 33.1676 103.479 33.1676 98.3113ZM25.431 73.512C36.0598 73.512 38.5901 76.0423 38.5901 86.6705C38.5901 97.2993 38.5901 87.6831 38.5901 98.3113C38.5901 108.94 36.0598 111.47 25.431 111.47C14.8028 111.47 24.419 111.47 13.7908 111.47C3.16189 111.47 0.631592 108.94 0.631592 98.3113C0.631592 87.6831 0.631592 92.6061 0.631592 86.6705C0.631592 76.0423 3.16189 73.512 13.7908 73.512C24.419 73.512 14.8028 73.512 25.431 73.512ZM22.1051 84.3573C26.6605 84.3573 27.7448 85.4422 27.7448 89.9963C27.7448 94.5517 27.7448 90.4307 27.7448 94.9855C27.7448 99.5402 26.6605 100.625 22.1051 100.625C17.5503 100.625 21.6714 100.625 17.1166 100.625C12.5619 100.625 11.4769 99.5402 11.4769 94.9855C11.4769 90.4307 11.4769 92.5404 11.4769 89.9963C11.4769 85.4422 12.5619 84.3573 17.1166 84.3573C21.6714 84.3573 17.5503 84.3573 22.1051 84.3573Z" fill="#BFBFBF"/>
</svg>
